<svg width="112" height="24" viewBox="0 0 112 24" fill="none" xmlns="http://www.w3.org/2000/svg">
<g clip-path="url(#clip0_1151_273114)">
<path d="M13.7249 10.4987C12.9828 9.64506 13.0776 8.34848 13.9368 7.60206C14.7961 6.85594 16.0941 6.94309 16.8369 7.7962C17.5788 8.6497 17.4838 9.94672 16.6248 10.6925C15.7924 11.4407 14.5138 11.3769 13.7695 10.5501C13.7553 10.5347 13.7415 10.5192 13.7283 10.503L13.7249 10.4987ZM12.2423 20.7512L13.8209 19.379C15.0847 18.294 15.7415 16.6641 15.5793 15.0141L16.7644 14.25C18.3312 13.1339 19.4778 11.5227 20.016 9.68004L21.2771 5.30418C21.4483 4.70406 21.1007 4.0821 20.5002 3.91517C20.3517 3.87354 20.1957 3.86313 20.0424 3.88435L15.6598 4.45878C13.7396 4.71479 11.9617 5.6227 10.6261 7.02986L9.64608 8.18372C8.02469 7.80562 6.31535 8.24129 5.06491 9.3495L3.48985 10.7263C3.2577 10.9353 3.23805 11.2924 3.44661 11.5228C3.4819 11.5623 3.5225 11.5956 3.56707 11.6235L6.32175 13.3037C6.22881 14.3838 6.58455 15.4513 7.30491 16.2573C8.0121 17.0719 9.01576 17.571 10.0959 17.6444L11.381 20.5971C11.5303 20.8696 11.8734 20.9682 12.1473 20.8173C12.1814 20.7981 12.2129 20.7764 12.2423 20.7512Z" fill="#0D1017"/>
<path d="M29.244 8.628L27.768 21H24.504L25.98 8.628H29.244ZM29.964 5.112C29.964 5.392 29.904 5.652 29.784 5.892C29.672 6.132 29.52 6.344 29.328 6.528C29.144 6.712 28.928 6.856 28.68 6.96C28.44 7.064 28.192 7.116 27.936 7.116C27.68 7.116 27.432 7.064 27.192 6.96C26.96 6.856 26.752 6.712 26.568 6.528C26.392 6.344 26.248 6.132 26.136 5.892C26.032 5.652 25.98 5.392 25.98 5.112C25.98 4.84 26.036 4.584 26.148 4.344C26.26 4.096 26.404 3.88 26.58 3.696C26.764 3.512 26.972 3.368 27.204 3.264C27.444 3.152 27.692 3.096 27.948 3.096C28.212 3.096 28.464 3.148 28.704 3.252C28.952 3.356 29.168 3.5 29.352 3.684C29.536 3.868 29.684 4.084 29.796 4.332C29.908 4.572 29.964 4.832 29.964 5.112ZM38.4949 11.568C38.2389 11.328 37.9469 11.16 37.6189 11.064C37.2989 10.96 36.9869 10.908 36.6829 10.908C36.2029 10.908 35.7629 11.064 35.3629 11.376C34.9629 11.68 34.6189 12.084 34.3309 12.588C34.0429 13.084 33.8189 13.652 33.6589 14.292C33.4989 14.924 33.4189 15.564 33.4189 16.212C33.4189 17.036 33.5469 17.644 33.8029 18.036C34.0589 18.428 34.4149 18.624 34.8709 18.624C35.1589 18.624 35.4589 18.52 35.7709 18.312C36.0829 18.096 36.3829 17.804 36.6709 17.436C36.9589 17.068 37.2269 16.636 37.4749 16.14C37.7309 15.644 37.9469 15.112 38.1229 14.544L38.4949 11.568ZM42.7909 3.108L40.5709 21H38.8069C38.5989 21 38.4229 20.972 38.2789 20.916C38.1429 20.86 38.0349 20.784 37.9549 20.688C37.8749 20.592 37.8189 20.48 37.7869 20.352C37.7549 20.224 37.7389 20.084 37.7389 19.932L37.7989 18.528C37.2149 19.352 36.5629 20 35.8429 20.472C35.1309 20.944 34.3709 21.18 33.5629 21.18C33.0509 21.18 32.5829 21.088 32.1589 20.904C31.7349 20.72 31.3709 20.44 31.0669 20.064C30.7709 19.68 30.5389 19.196 30.3709 18.612C30.2109 18.028 30.1309 17.336 30.1309 16.536C30.1309 15.832 30.2029 15.144 30.3469 14.472C30.4989 13.792 30.7069 13.152 30.9709 12.552C31.2429 11.952 31.5629 11.4 31.9309 10.896C32.3069 10.392 32.7149 9.96 33.1549 9.6C33.6029 9.232 34.0789 8.948 34.5829 8.748C35.0949 8.54 35.6229 8.436 36.1669 8.436C36.7029 8.436 37.1869 8.528 37.6189 8.712C38.0509 8.896 38.4309 9.148 38.7589 9.468L39.5509 3.108H42.7909ZM49.3296 10.728C48.9776 10.728 48.6456 10.804 48.3336 10.956C48.0216 11.1 47.7376 11.308 47.4816 11.58C47.2336 11.844 47.0136 12.164 46.8216 12.54C46.6296 12.916 46.4736 13.336 46.3536 13.8C47.2416 13.672 47.9576 13.536 48.5016 13.392C49.0536 13.24 49.4776 13.08 49.7736 12.912C50.0776 12.736 50.2776 12.548 50.3736 12.348C50.4776 12.148 50.5296 11.932 50.5296 11.7C50.5296 11.588 50.5056 11.476 50.4576 11.364C50.4096 11.244 50.3376 11.14 50.2416 11.052C50.1456 10.956 50.0216 10.88 49.8696 10.824C49.7176 10.76 49.5376 10.728 49.3296 10.728ZM46.0896 15.924C46.0896 17.756 46.8616 18.672 48.4056 18.672C48.9176 18.672 49.3336 18.608 49.6536 18.48C49.9816 18.344 50.2616 18.2 50.4936 18.048C50.7256 17.888 50.9376 17.744 51.1296 17.616C51.3296 17.48 51.5576 17.412 51.8136 17.412C51.9256 17.412 52.0296 17.44 52.1256 17.496C52.2296 17.544 52.3216 17.612 52.4016 17.7L53.2416 18.708C52.8096 19.14 52.3896 19.512 51.9816 19.824C51.5736 20.128 51.1496 20.384 50.7096 20.592C50.2696 20.792 49.8096 20.94 49.3296 21.036C48.8496 21.132 48.3216 21.18 47.7456 21.18C47.0176 21.18 46.3536 21.056 45.7536 20.808C45.1536 20.56 44.6376 20.212 44.2056 19.764C43.7816 19.308 43.4496 18.764 43.2096 18.132C42.9776 17.492 42.8616 16.78 42.8616 15.996C42.8616 15.34 42.9336 14.7 43.0776 14.076C43.2216 13.452 43.4296 12.86 43.7016 12.3C43.9736 11.74 44.3016 11.228 44.6856 10.764C45.0776 10.292 45.5216 9.888 46.0176 9.552C46.5136 9.208 47.0536 8.94 47.6376 8.748C48.2296 8.556 48.8576 8.46 49.5216 8.46C50.1696 8.46 50.7416 8.556 51.2376 8.748C51.7416 8.932 52.1616 9.176 52.4976 9.48C52.8336 9.776 53.0856 10.108 53.2536 10.476C53.4296 10.844 53.5176 11.212 53.5176 11.58C53.5176 12.132 53.4056 12.64 53.1816 13.104C52.9576 13.568 52.5656 13.984 52.0056 14.352C51.4456 14.712 50.6856 15.024 49.7256 15.288C48.7656 15.544 47.5536 15.744 46.0896 15.888V15.924ZM62.3312 10.764C62.2592 10.756 62.1872 10.752 62.1152 10.752C62.0432 10.752 61.9712 10.752 61.8992 10.752C61.2592 10.752 60.6712 10.896 60.1352 11.184C59.5992 11.472 59.1352 11.864 58.7432 12.36C58.3592 12.856 58.0552 13.432 57.8312 14.088C57.6152 14.744 57.5072 15.436 57.5072 16.164C57.5072 16.996 57.6352 17.6 57.8912 17.976C58.1472 18.344 58.4832 18.528 58.8992 18.528C59.1952 18.528 59.4872 18.42 59.7752 18.204C60.0712 17.988 60.3472 17.692 60.6032 17.316C60.8592 16.94 61.0952 16.5 61.3112 15.996C61.5272 15.484 61.7152 14.94 61.8752 14.364L62.3312 10.764ZM61.5152 18.672C60.9872 19.448 60.3952 20.06 59.7392 20.508C59.0912 20.956 58.3752 21.18 57.5912 21.18C57.1352 21.18 56.6992 21.092 56.2832 20.916C55.8752 20.732 55.5152 20.46 55.2032 20.1C54.8912 19.732 54.6432 19.272 54.4592 18.72C54.2832 18.16 54.1952 17.508 54.1952 16.764C54.1952 16.02 54.2872 15.3 54.4712 14.604C54.6552 13.9 54.9192 13.24 55.2632 12.624C55.6072 12.008 56.0232 11.444 56.5112 10.932C57.0072 10.412 57.5552 9.968 58.1552 9.6C58.7632 9.232 59.4192 8.948 60.1232 8.748C60.8352 8.54 61.5832 8.436 62.3672 8.436C62.9432 8.436 63.5192 8.48 64.0952 8.568C64.6712 8.648 65.2392 8.792 65.7992 9L64.3112 21H62.5472C62.3392 21 62.1632 20.972 62.0192 20.916C61.8832 20.86 61.7712 20.784 61.6832 20.688C61.6032 20.592 61.5472 20.48 61.5152 20.352C61.4832 20.224 61.4672 20.084 61.4672 19.932L61.5152 18.672ZM71.7726 11.004L70.6086 20.472L69.9846 22.656C69.8486 23.072 69.6486 23.396 69.3846 23.628C69.1206 23.868 68.7526 23.988 68.2806 23.988H66.9366L68.5326 11.004L67.7406 10.836C67.5006 10.788 67.3126 10.708 67.1766 10.596C67.0406 10.476 66.9886 10.3 67.0206 10.068L67.1766 8.7H68.8206L68.8806 8.196C68.9606 7.548 69.1286 6.928 69.3846 6.336C69.6486 5.736 70.0046 5.208 70.4526 4.752C70.9086 4.296 71.4566 3.932 72.0966 3.66C72.7446 3.38 73.4886 3.24 74.3286 3.24C74.9766 3.24 75.5886 3.264 76.1646 3.312C76.7406 3.352 77.3246 3.376 77.9166 3.384H80.0406L77.8686 21H74.6646L76.5246 5.7C76.1886 5.66 75.8526 5.624 75.5166 5.592C75.1886 5.552 74.8726 5.532 74.5686 5.532C73.8326 5.532 73.2406 5.756 72.7926 6.204C72.3446 6.644 72.0766 7.308 71.9886 8.196L71.9406 8.7H74.4366L74.1606 11.004H71.7726ZM85.3219 18.696C85.7859 18.696 86.2019 18.56 86.5699 18.288C86.9379 18.016 87.2499 17.652 87.5059 17.196C87.7619 16.732 87.9579 16.196 88.0939 15.588C88.2379 14.98 88.3099 14.336 88.3099 13.656C88.3099 12.696 88.1619 12.004 87.8659 11.58C87.5699 11.148 87.1099 10.932 86.4859 10.932C86.0299 10.932 85.6139 11.068 85.2379 11.34C84.8699 11.604 84.5579 11.964 84.3019 12.42C84.0459 12.876 83.8459 13.412 83.7019 14.028C83.5659 14.636 83.4979 15.28 83.4979 15.96C83.4979 16.904 83.6459 17.596 83.9419 18.036C84.2379 18.476 84.6979 18.696 85.3219 18.696ZM85.0339 21.18C84.3459 21.18 83.7059 21.068 83.1139 20.844C82.5219 20.612 82.0099 20.276 81.5779 19.836C81.1459 19.396 80.8059 18.852 80.5579 18.204C80.3179 17.556 80.1979 16.816 80.1979 15.984C80.1979 14.904 80.3739 13.904 80.7259 12.984C81.0779 12.056 81.5539 11.256 82.1539 10.584C82.7539 9.912 83.4539 9.388 84.2539 9.012C85.0539 8.628 85.8979 8.436 86.7859 8.436C87.4739 8.436 88.1099 8.552 88.6939 8.784C89.2859 9.008 89.7979 9.344 90.2299 9.792C90.6619 10.232 91.0019 10.776 91.2499 11.424C91.4979 12.072 91.6219 12.812 91.6219 13.644C91.6219 14.716 91.4459 15.712 91.0939 16.632C90.7419 17.552 90.2619 18.348 89.6539 19.02C89.0539 19.692 88.3539 20.22 87.5539 20.604C86.7619 20.988 85.9219 21.18 85.0339 21.18ZM110.128 8.628L105.052 21H102.484C102.348 21 102.24 20.956 102.16 20.868C102.08 20.78 102.02 20.632 101.98 20.424L100.924 13.728C100.876 13.408 100.84 13.084 100.816 12.756C100.76 12.924 100.7 13.092 100.636 13.26C100.572 13.42 100.508 13.584 100.444 13.752L97.7678 20.424C97.6078 20.808 97.3718 21 97.0598 21H94.5878L92.5238 8.628H95.0558C95.2718 8.628 95.4478 8.684 95.5838 8.796C95.7278 8.908 95.8198 9.052 95.8598 9.228L96.4118 15.348C96.4598 16.108 96.4958 16.84 96.5198 17.544C96.6558 17.184 96.7918 16.824 96.9278 16.464C97.0638 16.104 97.2118 15.732 97.3718 15.348L99.7838 9.204C99.8478 9.036 99.9598 8.896 100.12 8.784C100.288 8.672 100.472 8.616 100.672 8.616H102.088C102.32 8.616 102.504 8.672 102.64 8.784C102.784 8.896 102.864 9.036 102.88 9.204L103.768 15.348C103.824 15.724 103.872 16.092 103.912 16.452C103.96 16.812 104.004 17.172 104.044 17.532C104.148 17.172 104.256 16.816 104.368 16.464C104.48 16.104 104.604 15.732 104.74 15.348L106.828 9.228C106.892 9.052 107.004 8.908 107.164 8.796C107.324 8.684 107.504 8.628 107.704 8.628H110.128Z" fill="#0D1017"/>
</g>
<defs>
<clipPath id="clip0_1151_273114">
<rect width="112" height="24" fill="white"/>
</clipPath>
</defs>
</svg>
