<svg width="114" height="40" viewBox="0 0 114 40" fill="none" xmlns="http://www.w3.org/2000/svg">
<path d="M11.7154 1V6.45745H4.5V2.36436H3.20769C2.74296 2.61696 2.6796 2.84534 2.61538 3.27394L3.96154 13.3298L3.20769 14.5426L2.02308 13.734L2.45385 13.0266L1 3.02128C1.03399 1.91996 1.36861 1.42696 2.83077 1H11.7154Z" fill="#E86027" stroke="#E86027"/>
<path d="M11.7154 8.52905H4.55425H4.5V29.045H11.7154V8.52905Z" fill="#3C404B" stroke="#3C404B"/>
<path d="M11.7154 29.7527H4.5V31.4202C5.89394 32.0547 6.37139 32.6317 6.55361 34.149V35.2101H9.66178V34.149C9.8573 32.796 10.324 32.2059 11.7154 31.4202V29.7527Z" fill="#3C404B" stroke="#3C404B"/>
<path d="M9.66922 35.6143H6.54614V37.5345C6.78674 38.1925 6.99878 38.5176 7.51537 38.9999L9.66922 37.2313V35.6143Z" fill="#E86027" stroke="#E86027"/>
<path d="M17.5846 6.50799V1.10107H37.1307V6.50799H30.5077V39H24.2077V6.50799H17.5846Z" fill="#3C404B" stroke="#3C404B"/>
<path d="M43.1077 39V1.10107H60.3384V6.45746H49.4615V17.0692H58.0769V22.4255H49.4615V33.5426H60.3384V39H43.1077Z" fill="#3C404B" stroke="#3C404B"/>
<path d="M72.8308 1.10107H66.4231H66.3693L72.9385 19.4947L65.8308 39H71.7539L76.9231 24.2447H77.1385L82.2 39H88.877L81.7693 19.4947L88.4462 1.10107H82.6308L77.7847 15.0479H77.5693L72.8308 1.10107Z" fill="#3C404B" stroke="#3C404B"/>
<path d="M93.4 6.45746V1.10107H113V6.45746H106.323V39H99.9693V6.45746H93.4Z" fill="#3C404B" stroke="#3C404B"/>
</svg>
